<?xml version="1.0" encoding="UTF-8" ?>
<svg version="1.1" width="630" height="600" xmlns="http://www.w3.org/2000/svg" shape-rendering="crispEdges">
<rect x="170" y="0" width="70" height="10" fill="#FFFFFF" />
<rect x="160" y="10" width="20" height="10" fill="#FFFFFF" />
<rect x="180" y="10" width="50" height="40" fill="#6083C5" />
<rect x="230" y="10" width="20" height="10" fill="#FFFFFF" />
<rect x="150" y="20" width="20" height="10" fill="#FFFFFF" />
<rect x="170" y="20" width="10" height="60" fill="#6083C5" />
<rect x="230" y="20" width="10" height="70" fill="#6083C5" />
<rect x="240" y="20" width="20" height="10" fill="#FFFFFF" />
<rect x="140" y="30" width="20" height="10" fill="#FFFFFF" />
<rect x="160" y="30" width="10" height="70" fill="#6083C5" />
<rect x="240" y="30" width="10" height="70" fill="#6083C5" />
<rect x="250" y="30" width="20" height="10" fill="#FFFFFF" />
<rect x="130" y="40" width="20" height="10" fill="#FFFFFF" />
<rect x="150" y="40" width="10" height="70" fill="#6083C5" />
<rect x="250" y="40" width="10" height="90" fill="#6083C5" />
<rect x="260" y="40" width="20" height="10" fill="#FFFFFF" />
<rect x="120" y="50" width="20" height="10" fill="#FFFFFF" />
<rect x="140" y="50" width="10" height="90" fill="#6083C5" />
<rect x="180" y="50" width="20" height="10" fill="#6083C5" />
<rect x="200" y="50" width="10" height="20" fill="#A9C8FF" />
<rect x="210" y="50" width="20" height="10" fill="#6083C5" />
<rect x="260" y="50" width="10" height="140" fill="#6083C5" />
<rect x="270" y="50" width="10" height="20" fill="#FFFFFF" />
<rect x="370" y="50" width="130" height="10" fill="#FFFFFF" />
<rect x="120" y="60" width="10" height="20" fill="#FFFFFF" />
<rect x="130" y="60" width="10" height="100" fill="#6083C5" />
<rect x="180" y="60" width="10" height="10" fill="#6083C5" />
<rect x="190" y="60" width="10" height="20" fill="#A9C8FF" />
<rect x="210" y="60" width="10" height="100" fill="#FFFFFF" />
<rect x="220" y="60" width="10" height="10" fill="#6083C5" />
<rect x="280" y="60" width="10" height="20" fill="#FFFFFF" />
<rect x="350" y="60" width="30" height="10" fill="#FFFFFF" />
<rect x="380" y="60" width="110" height="40" fill="#6083C5" />
<rect x="490" y="60" width="30" height="10" fill="#FFFFFF" />
<rect x="110" y="70" width="10" height="20" fill="#FFFFFF" />
<rect x="180" y="70" width="10" height="20" fill="#A9C8FF" />
<rect x="200" y="70" width="10" height="100" fill="#FFFFFF" />
<rect x="220" y="70" width="10" height="80" fill="#FFFFFF" />
<rect x="270" y="70" width="10" height="120" fill="#6083C5" />
<rect x="290" y="70" width="10" height="40" fill="#FFFFFF" />
<rect x="340" y="70" width="20" height="10" fill="#FFFFFF" />
<rect x="360" y="70" width="20" height="50" fill="#6083C5" />
<rect x="490" y="70" width="20" height="200" fill="#6083C5" />
<rect x="510" y="70" width="20" height="10" fill="#FFFFFF" />
<rect x="100" y="80" width="10" height="40" fill="#FFFFFF" />
<rect x="120" y="80" width="10" height="140" fill="#6083C5" />
<rect x="170" y="80" width="10" height="30" fill="#A9C8FF" />
<rect x="190" y="80" width="10" height="100" fill="#FFFFFF" />
<rect x="280" y="80" width="10" height="100" fill="#6083C5" />
<rect x="330" y="80" width="20" height="10" fill="#FFFFFF" />
<rect x="350" y="80" width="10" height="60" fill="#6083C5" />
<rect x="510" y="80" width="10" height="180" fill="#6083C5" />
<rect x="520" y="80" width="10" height="40" fill="#FFFFFF" />
<rect x="110" y="90" width="10" height="250" fill="#6083C5" />
<rect x="180" y="90" width="10" height="100" fill="#FFFFFF" />
<rect x="230" y="90" width="10" height="60" fill="#FFFFFF" />
<rect x="320" y="90" width="20" height="10" fill="#FFFFFF" />
<rect x="340" y="90" width="10" height="100" fill="#6083C5" />
<rect x="160" y="100" width="10" height="30" fill="#A9C8FF" />
<rect x="240" y="100" width="10" height="40" fill="#FFFFFF" />
<rect x="300" y="100" width="30" height="10" fill="#FFFFFF" />
<rect x="330" y="100" width="10" height="80" fill="#6083C5" />
<rect x="380" y="100" width="20" height="10" fill="#6083C5" />
<rect x="400" y="100" width="70" height="50" fill="#FFFFFF" />
<rect x="470" y="100" width="20" height="10" fill="#6083C5" />
<rect x="90" y="110" width="10" height="40" fill="#FFFFFF" />
<rect x="150" y="110" width="10" height="150" fill="#A9C8FF" />
<rect x="170" y="110" width="10" height="90" fill="#FFFFFF" />
<rect x="290" y="110" width="10" height="70" fill="#6083C5" />
<rect x="300" y="110" width="20" height="10" fill="#FFFFFF" />
<rect x="320" y="110" width="10" height="70" fill="#6083C5" />
<rect x="380" y="110" width="20" height="40" fill="#FFFFFF" />
<rect x="470" y="110" width="10" height="130" fill="#FFFFFF" />
<rect x="480" y="110" width="10" height="30" fill="#6083C5" />
<rect x="530" y="110" width="10" height="130" fill="#FFFFFF" />
<rect x="100" y="120" width="10" height="210" fill="#6083C5" />
<rect x="300" y="120" width="10" height="20" fill="#FFFFFF" />
<rect x="310" y="120" width="10" height="60" fill="#6083C5" />
<rect x="360" y="120" width="10" height="10" fill="#6083C5" />
<rect x="370" y="120" width="10" height="20" fill="#FFFFFF" />
<rect x="520" y="120" width="10" height="110" fill="#6083C5" />
<rect x="160" y="130" width="10" height="80" fill="#FFFFFF" />
<rect x="250" y="130" width="10" height="10" fill="#FFFFFF" />
<rect x="360" y="130" width="10" height="10" fill="#FFFFFF" />
<rect x="80" y="140" width="10" height="60" fill="#FFFFFF" />
<rect x="140" y="140" width="10" height="170" fill="#A9C8FF" />
<rect x="240" y="140" width="20" height="10" fill="#A9C8FF" />
<rect x="300" y="140" width="10" height="40" fill="#6083C5" />
<rect x="350" y="140" width="30" height="10" fill="#A9C8FF" />
<rect x="480" y="140" width="10" height="70" fill="#FFFFFF" />
<rect x="90" y="150" width="10" height="160" fill="#6083C5" />
<rect x="220" y="150" width="20" height="10" fill="#A9C8FF" />
<rect x="240" y="150" width="20" height="40" fill="#6083C5" />
<rect x="350" y="150" width="30" height="40" fill="#6083C5" />
<rect x="380" y="150" width="30" height="10" fill="#A9C8FF" />
<rect x="410" y="150" width="60" height="10" fill="#FFFFFF" />
<rect x="130" y="160" width="10" height="130" fill="#A9C8FF" />
<rect x="210" y="160" width="20" height="10" fill="#A9C8FF" />
<rect x="230" y="160" width="10" height="50" fill="#6083C5" />
<rect x="380" y="160" width="10" height="50" fill="#6083C5" />
<rect x="390" y="160" width="40" height="10" fill="#A9C8FF" />
<rect x="430" y="160" width="40" height="20" fill="#FFFFFF" />
<rect x="200" y="170" width="10" height="10" fill="#A9C8FF" />
<rect x="210" y="170" width="20" height="40" fill="#6083C5" />
<rect x="390" y="170" width="20" height="40" fill="#6083C5" />
<rect x="410" y="170" width="20" height="10" fill="#A9C8FF" />
<rect x="190" y="180" width="10" height="10" fill="#A9C8FF" />
<rect x="200" y="180" width="10" height="60" fill="#6083C5" />
<rect x="280" y="180" width="60" height="100" fill="#FFFFFF" />
<rect x="410" y="180" width="10" height="60" fill="#6083C5" />
<rect x="420" y="180" width="20" height="10" fill="#A9C8FF" />
<rect x="440" y="180" width="30" height="10" fill="#FFFFFF" />
<rect x="70" y="190" width="10" height="90" fill="#FFFFFF" />
<rect x="180" y="190" width="10" height="10" fill="#A9C8FF" />
<rect x="190" y="190" width="10" height="80" fill="#6083C5" />
<rect x="240" y="190" width="10" height="10" fill="#6083C5" />
<rect x="250" y="190" width="10" height="20" fill="#A9C8FF" />
<rect x="260" y="190" width="20" height="110" fill="#FFFFFF" />
<rect x="340" y="190" width="30" height="70" fill="#FFFFFF" />
<rect x="370" y="190" width="10" height="10" fill="#6083C5" />
<rect x="420" y="190" width="10" height="80" fill="#6083C5" />
<rect x="430" y="190" width="20" height="10" fill="#A9C8FF" />
<rect x="450" y="190" width="20" height="20" fill="#FFFFFF" />
<rect x="80" y="200" width="10" height="70" fill="#6083C5" />
<rect x="170" y="200" width="10" height="20" fill="#A9C8FF" />
<rect x="180" y="200" width="10" height="210" fill="#6083C5" />
<rect x="240" y="200" width="10" height="40" fill="#A9C8FF" />
<rect x="370" y="200" width="10" height="60" fill="#FFFFFF" />
<rect x="430" y="200" width="10" height="120" fill="#6083C5" />
<rect x="440" y="200" width="10" height="20" fill="#A9C8FF" />
<rect x="160" y="210" width="10" height="20" fill="#A9C8FF" />
<rect x="210" y="210" width="10" height="20" fill="#6083C5" />
<rect x="220" y="210" width="20" height="100" fill="#A9C8FF" />
<rect x="250" y="210" width="10" height="110" fill="#FFFFFF" />
<rect x="380" y="210" width="20" height="60" fill="#FFFFFF" />
<rect x="400" y="210" width="10" height="20" fill="#6083C5" />
<rect x="450" y="210" width="10" height="20" fill="#A9C8FF" />
<rect x="460" y="210" width="10" height="20" fill="#FFFFFF" />
<rect x="480" y="210" width="10" height="80" fill="#6083C5" />
<rect x="120" y="220" width="10" height="30" fill="#A9C8FF" />
<rect x="170" y="220" width="10" height="180" fill="#6083C5" />
<rect x="440" y="220" width="10" height="110" fill="#6083C5" />
<rect x="160" y="230" width="10" height="170" fill="#6083C5" />
<rect x="210" y="230" width="10" height="90" fill="#A9C8FF" />
<rect x="400" y="230" width="10" height="70" fill="#FFFFFF" />
<rect x="450" y="230" width="10" height="100" fill="#6083C5" />
<rect x="460" y="230" width="10" height="20" fill="#A9C8FF" />
<rect x="520" y="230" width="10" height="40" fill="#FFFFFF" />
<rect x="200" y="240" width="10" height="120" fill="#A9C8FF" />
<rect x="240" y="240" width="10" height="70" fill="#FFFFFF" />
<rect x="410" y="240" width="10" height="60" fill="#FFFFFF" />
<rect x="470" y="240" width="10" height="60" fill="#6083C5" />
<rect x="120" y="250" width="10" height="110" fill="#6083C5" />
<rect x="460" y="250" width="10" height="80" fill="#6083C5" />
<rect x="150" y="260" width="10" height="150" fill="#6083C5" />
<rect x="340" y="260" width="10" height="10" fill="#FFFFFF" />
<rect x="350" y="260" width="30" height="50" fill="#6083C5" />
<rect x="510" y="260" width="10" height="80" fill="#547CC4" />
<rect x="80" y="270" width="10" height="50" fill="#FFFFFF" />
<rect x="190" y="270" width="10" height="60" fill="#A9C8FF" />
<rect x="340" y="270" width="10" height="30" fill="#6083C5" />
<rect x="380" y="270" width="10" height="30" fill="#6083C5" />
<rect x="390" y="270" width="10" height="40" fill="#FFFFFF" />
<rect x="420" y="270" width="10" height="40" fill="#FFFFFF" />
<rect x="490" y="270" width="10" height="10" fill="#6083C5" />
<rect x="500" y="270" width="10" height="80" fill="#547CC4" />
<rect x="520" y="270" width="10" height="60" fill="#547CC4" />
<rect x="280" y="280" width="10" height="10" fill="#FFFFFF" />
<rect x="290" y="280" width="20" height="80" fill="#547CC4" />
<rect x="310" y="280" width="30" height="50" fill="#FFFFFF" />
<rect x="490" y="280" width="10" height="20" fill="#FFFFFF" />
<rect x="130" y="290" width="10" height="70" fill="#6083C5" />
<rect x="280" y="290" width="10" height="70" fill="#547CC4" />
<rect x="480" y="290" width="10" height="30" fill="#FFFFFF" />
<rect x="530" y="290" width="10" height="30" fill="#547CC4" />
<rect x="260" y="300" width="10" height="60" fill="#FFFFFF" />
<rect x="270" y="300" width="10" height="40" fill="#547CC4" />
<rect x="340" y="300" width="10" height="40" fill="#FFFFFF" />
<rect x="380" y="300" width="10" height="20" fill="#FFFFFF" />
<rect x="400" y="300" width="20" height="40" fill="#547CC4" />
<rect x="470" y="300" width="10" height="20" fill="#FFFFFF" />
<rect x="90" y="310" width="10" height="30" fill="#FFFFFF" />
<rect x="140" y="310" width="10" height="100" fill="#6083C5" />
<rect x="220" y="310" width="30" height="50" fill="#6083C5" />
<rect x="350" y="310" width="30" height="20" fill="#FFFFFF" />
<rect x="390" y="310" width="10" height="40" fill="#547CC4" />
<rect x="420" y="310" width="10" height="40" fill="#547CC4" />
<rect x="210" y="320" width="10" height="30" fill="#6083C5" />
<rect x="250" y="320" width="10" height="30" fill="#6083C5" />
<rect x="380" y="320" width="10" height="40" fill="#547CC4" />
<rect x="430" y="320" width="10" height="40" fill="#547CC4" />
<rect x="470" y="320" width="10" height="10" fill="#6083C5" />
<rect x="480" y="320" width="20" height="40" fill="#547CC4" />
<rect x="100" y="330" width="10" height="20" fill="#FFFFFF" />
<rect x="190" y="330" width="10" height="80" fill="#6083C5" />
<rect x="310" y="330" width="10" height="40" fill="#547CC4" />
<rect x="320" y="330" width="20" height="10" fill="#FFFFFF" />
<rect x="350" y="330" width="30" height="30" fill="#547CC4" />
<rect x="440" y="330" width="40" height="30" fill="#547CC4" />
<rect x="520" y="330" width="20" height="10" fill="#FFFFFF" />
<rect x="110" y="340" width="10" height="40" fill="#FFFFFF" />
<rect x="270" y="340" width="10" height="40" fill="#FFFFFF" />
<rect x="320" y="340" width="30" height="30" fill="#547CC4" />
<rect x="400" y="340" width="10" height="30" fill="#FFFFFF" />
<rect x="410" y="340" width="10" height="10" fill="#547CC4" />
<rect x="510" y="340" width="20" height="50" fill="#6083C5" />
<rect x="530" y="340" width="70" height="10" fill="#FFFFFF" />
<rect x="210" y="350" width="10" height="20" fill="#A9C8FF" />
<rect x="250" y="350" width="10" height="60" fill="#A9C8FF" />
<rect x="390" y="350" width="10" height="40" fill="#FFFFFF" />
<rect x="410" y="350" width="10" height="10" fill="#FFFFFF" />
<rect x="420" y="350" width="10" height="60" fill="#6083C5" />
<rect x="500" y="350" width="10" height="30" fill="#6083C5" />
<rect x="530" y="350" width="20" height="60" fill="#6083C5" />
<rect x="550" y="350" width="10" height="10" fill="#FFFFFF" />
<rect x="560" y="350" width="30" height="90" fill="#6083C5" />
<rect x="590" y="350" width="20" height="10" fill="#FFFFFF" />
<rect x="120" y="360" width="20" height="10" fill="#FFFFFF" />
<rect x="200" y="360" width="10" height="60" fill="#6083C5" />
<rect x="220" y="360" width="30" height="10" fill="#A9C8FF" />
<rect x="260" y="360" width="10" height="50" fill="#A9C8FF" />
<rect x="280" y="360" width="20" height="30" fill="#FFFFFF" />
<rect x="300" y="360" width="10" height="10" fill="#547CC4" />
<rect x="350" y="360" width="20" height="10" fill="#547CC4" />
<rect x="370" y="360" width="20" height="30" fill="#FFFFFF" />
<rect x="410" y="360" width="10" height="60" fill="#6083C5" />
<rect x="430" y="360" width="70" height="10" fill="#6083C5" />
<rect x="550" y="360" width="10" height="70" fill="#6083C5" />
<rect x="590" y="360" width="10" height="70" fill="#6083C5" />
<rect x="600" y="360" width="20" height="10" fill="#FFFFFF" />
<rect x="90" y="370" width="20" height="10" fill="#FFFFFF" />
<rect x="120" y="370" width="20" height="50" fill="#6083C5" />
<rect x="210" y="370" width="20" height="60" fill="#6083C5" />
<rect x="230" y="370" width="20" height="10" fill="#A9C8FF" />
<rect x="300" y="370" width="70" height="30" fill="#FFFFFF" />
<rect x="400" y="370" width="10" height="100" fill="#6083C5" />
<rect x="430" y="370" width="20" height="10" fill="#6083C5" />
<rect x="450" y="370" width="30" height="20" fill="#FFFFFF" />
<rect x="480" y="370" width="20" height="10" fill="#6083C5" />
<rect x="600" y="370" width="10" height="50" fill="#6083C5" />
<rect x="610" y="370" width="20" height="10" fill="#FFFFFF" />
<rect x="70" y="380" width="30" height="10" fill="#FFFFFF" />
<rect x="100" y="380" width="20" height="50" fill="#6083C5" />
<rect x="230" y="380" width="10" height="100" fill="#6083C5" />
<rect x="240" y="380" width="10" height="10" fill="#A9C8FF" />
<rect x="270" y="380" width="10" height="30" fill="#A9C8FF" />
<rect x="430" y="380" width="10" height="20" fill="#6083C5" />
<rect x="440" y="380" width="10" height="30" fill="#FFFFFF" />
<rect x="480" y="380" width="30" height="10" fill="#FFFFFF" />
<rect x="610" y="380" width="10" height="30" fill="#6083C5" />
<rect x="620" y="380" width="10" height="40" fill="#FFFFFF" />
<rect x="60" y="390" width="20" height="10" fill="#FFFFFF" />
<rect x="80" y="390" width="20" height="100" fill="#6083C5" />
<rect x="240" y="390" width="10" height="90" fill="#6083C5" />
<rect x="280" y="390" width="10" height="30" fill="#A9C8FF" />
<rect x="290" y="390" width="10" height="10" fill="#FFFFFF" />
<rect x="370" y="390" width="10" height="10" fill="#FFFFFF" />
<rect x="380" y="390" width="20" height="80" fill="#6083C5" />
<rect x="490" y="390" width="40" height="10" fill="#FFFFFF" />
<rect x="60" y="400" width="10" height="20" fill="#FFFFFF" />
<rect x="70" y="400" width="10" height="110" fill="#6083C5" />
<rect x="160" y="400" width="20" height="20" fill="#FFFFFF" />
<rect x="290" y="400" width="80" height="10" fill="#A9C8FF" />
<rect x="370" y="400" width="10" height="60" fill="#6083C5" />
<rect x="430" y="400" width="10" height="40" fill="#FFFFFF" />
<rect x="520" y="400" width="10" height="20" fill="#FFFFFF" />
<rect x="50" y="410" width="10" height="20" fill="#FFFFFF" />
<rect x="140" y="410" width="20" height="10" fill="#FFFFFF" />
<rect x="180" y="410" width="20" height="10" fill="#FFFFFF" />
<rect x="250" y="410" width="30" height="50" fill="#6083C5" />
<rect x="290" y="410" width="50" height="10" fill="#A9C8FF" />
<rect x="340" y="410" width="30" height="50" fill="#6083C5" />
<rect x="420" y="410" width="10" height="20" fill="#FFFFFF" />
<rect x="530" y="410" width="10" height="30" fill="#FFFFFF" />
<rect x="540" y="410" width="10" height="10" fill="#6083C5" />
<rect x="610" y="410" width="10" height="20" fill="#FFFFFF" />
<rect x="30" y="420" width="20" height="10" fill="#FFFFFF" />
<rect x="60" y="420" width="10" height="100" fill="#6083C5" />
<rect x="120" y="420" width="30" height="10" fill="#FFFFFF" />
<rect x="190" y="420" width="20" height="10" fill="#FFFFFF" />
<rect x="280" y="420" width="60" height="40" fill="#6083C5" />
<rect x="410" y="420" width="10" height="10" fill="#FFFFFF" />
<rect x="540" y="420" width="10" height="30" fill="#FFFFFF" />
<rect x="600" y="420" width="10" height="20" fill="#FFFFFF" />
<rect x="20" y="430" width="20" height="10" fill="#FFFFFF" />
<rect x="40" y="430" width="20" height="90" fill="#6083C5" />
<rect x="100" y="430" width="10" height="10" fill="#6083C5" />
<rect x="110" y="430" width="20" height="10" fill="#FFFFFF" />
<rect x="200" y="430" width="30" height="10" fill="#FFFFFF" />
<rect x="410" y="430" width="20" height="60" fill="#6083C5" />
<rect x="440" y="430" width="10" height="20" fill="#FFFFFF" />
<rect x="470" y="430" width="60" height="10" fill="#FFFFFF" />
<rect x="550" y="430" width="10" height="40" fill="#FFFFFF" />
<rect x="590" y="430" width="10" height="20" fill="#FFFFFF" />
<rect x="10" y="440" width="20" height="10" fill="#FFFFFF" />
<rect x="30" y="440" width="10" height="70" fill="#6083C5" />
<rect x="100" y="440" width="20" height="10" fill="#FFFFFF" />
<rect x="190" y="440" width="20" height="10" fill="#FFFFFF" />
<rect x="210" y="440" width="20" height="60" fill="#6083C5" />
<rect x="430" y="440" width="10" height="90" fill="#6083C5" />
<rect x="450" y="440" width="30" height="10" fill="#FFFFFF" />
<rect x="480" y="440" width="60" height="90" fill="#6083C5" />
<rect x="560" y="440" width="30" height="10" fill="#FFFFFF" />
<rect x="0" y="450" width="20" height="10" fill="#FFFFFF" />
<rect x="20" y="450" width="10" height="50" fill="#6083C5" />
<rect x="100" y="450" width="10" height="30" fill="#6083C5" />
<rect x="110" y="450" width="10" height="60" fill="#FFFFFF" />
<rect x="180" y="450" width="20" height="10" fill="#FFFFFF" />
<rect x="200" y="450" width="10" height="140" fill="#6083C5" />
<rect x="440" y="450" width="10" height="100" fill="#6083C5" />
<rect x="450" y="450" width="20" height="10" fill="#FFFFFF" />
<rect x="470" y="450" width="10" height="110" fill="#6083C5" />
<rect x="540" y="450" width="10" height="70" fill="#6083C5" />
<rect x="0" y="460" width="10" height="40" fill="#FFFFFF" />
<rect x="10" y="460" width="10" height="30" fill="#6083C5" />
<rect x="180" y="460" width="10" height="20" fill="#FFFFFF" />
<rect x="190" y="460" width="10" height="130" fill="#6083C5" />
<rect x="250" y="460" width="10" height="10" fill="#6083C5" />
<rect x="260" y="460" width="120" height="10" fill="#FFFFFF" />
<rect x="450" y="460" width="10" height="10" fill="#FFFFFF" />
<rect x="460" y="460" width="10" height="100" fill="#6083C5" />
<rect x="560" y="460" width="10" height="50" fill="#FFFFFF" />
<rect x="170" y="470" width="10" height="30" fill="#FFFFFF" />
<rect x="250" y="470" width="20" height="10" fill="#FFFFFF" />
<rect x="370" y="470" width="40" height="10" fill="#FFFFFF" />
<rect x="450" y="470" width="10" height="90" fill="#6083C5" />
<rect x="550" y="470" width="10" height="30" fill="#6083C5" />
<rect x="100" y="480" width="10" height="40" fill="#FFFFFF" />
<rect x="180" y="480" width="10" height="110" fill="#6083C5" />
<rect x="230" y="480" width="30" height="10" fill="#FFFFFF" />
<rect x="400" y="480" width="10" height="20" fill="#FFFFFF" />
<rect x="10" y="490" width="10" height="20" fill="#FFFFFF" />
<rect x="80" y="490" width="10" height="10" fill="#6083C5" />
<rect x="90" y="490" width="10" height="80" fill="#FFFFFF" />
<rect x="120" y="490" width="50" height="10" fill="#FFFFFF" />
<rect x="230" y="490" width="10" height="20" fill="#FFFFFF" />
<rect x="410" y="490" width="10" height="20" fill="#FFFFFF" />
<rect x="420" y="490" width="10" height="10" fill="#6083C5" />
<rect x="20" y="500" width="10" height="20" fill="#FFFFFF" />
<rect x="80" y="500" width="10" height="20" fill="#FFFFFF" />
<rect x="120" y="500" width="60" height="70" fill="#6083C5" />
<rect x="210" y="500" width="10" height="80" fill="#6083C5" />
<rect x="220" y="500" width="10" height="30" fill="#FFFFFF" />
<rect x="420" y="500" width="10" height="40" fill="#FFFFFF" />
<rect x="550" y="500" width="10" height="20" fill="#FFFFFF" />
<rect x="30" y="510" width="10" height="20" fill="#FFFFFF" />
<rect x="70" y="510" width="10" height="20" fill="#FFFFFF" />
<rect x="110" y="510" width="10" height="60" fill="#6083C5" />
<rect x="40" y="520" width="30" height="10" fill="#FFFFFF" />
<rect x="100" y="520" width="10" height="40" fill="#6083C5" />
<rect x="230" y="520" width="10" height="60" fill="#FFFFFF" />
<rect x="540" y="520" width="10" height="20" fill="#FFFFFF" />
<rect x="220" y="530" width="10" height="40" fill="#6083C5" />
<rect x="430" y="530" width="10" height="30" fill="#FFFFFF" />
<rect x="480" y="530" width="50" height="10" fill="#6083C5" />
<rect x="530" y="530" width="10" height="20" fill="#FFFFFF" />
<rect x="480" y="540" width="40" height="10" fill="#6083C5" />
<rect x="520" y="540" width="10" height="20" fill="#FFFFFF" />
<rect x="440" y="550" width="10" height="20" fill="#FFFFFF" />
<rect x="480" y="550" width="20" height="10" fill="#6083C5" />
<rect x="500" y="550" width="20" height="10" fill="#FFFFFF" />
<rect x="100" y="560" width="10" height="20" fill="#FFFFFF" />
<rect x="450" y="560" width="60" height="10" fill="#FFFFFF" />
<rect x="110" y="570" width="20" height="10" fill="#FFFFFF" />
<rect x="130" y="570" width="50" height="10" fill="#6083C5" />
<rect x="220" y="570" width="10" height="20" fill="#FFFFFF" />
<rect x="120" y="580" width="50" height="10" fill="#FFFFFF" />
<rect x="170" y="580" width="10" height="10" fill="#6083C5" />
<rect x="210" y="580" width="10" height="20" fill="#FFFFFF" />
<rect x="160" y="590" width="50" height="10" fill="#FFFFFF" />
</svg>